<svg xmlns="http://www.w3.org/2000/svg" width="88.96043" height="120.00087" viewBox="0 0 88.96043 120.00087">
  <g id="Calque_2" data-name="Calque 2">
    <g id="Calque_1-2" data-name="Calque 1">
      <path d="M54.08024,100.80042h-20.48a16.04284,16.04284,0,0,1-15.19995-11.2l-18.4,5.28a34.8,34.8,0,0,0,33.6,25.12h20.48a34.757,34.757,0,0,0,34.88-34.63355q.00036-.12323,0-.24646A34.723,34.723,0,0,0,54.2346,50.40009l-.15436.00037h-19.2a15.60021,15.60021,0,1,1,0-31.2h20.48a16.04294,16.04294,0,0,1,15.2,11.2l18.4-5.28a34.80008,34.80008,0,0,0-33.6-25.12h-20.48A34.72292,34.72292,0,0,0,.00059,34.566l-.00037.15436a34.757,34.757,0,0,0,34.63355,34.88q.12322.00047.24646,0h19.2a15.60021,15.60021,0,1,1,0,31.2Z" fill="#7a30cf"/>
    </g>
  </g>
</svg>
